<svg width="240" height="117" viewBox="0 0 240 117" fill="none" xmlns="http://www.w3.org/2000/svg">
<path d="M2.74979 51.4888C2.7526 51.486 2.75495 51.4828 2.75823 51.4799L51.7445 2.72997C55.4143 -0.922061 61.3501 -0.908471 65.003 2.76184C68.6555 6.43168 68.6415 12.3675 64.9716 16.02L32.0823 48.7499H230.625C235.803 48.7499 240 52.9471 240 58.1249C240 63.3027 235.803 67.4999 230.625 67.4999H32.0827L64.9712 100.23C68.641 103.882 68.6551 109.818 65.0026 113.488C61.3496 117.159 55.4134 117.171 51.744 113.52L2.75776 64.7699C2.75495 64.7671 2.7526 64.7638 2.74932 64.761C-0.922397 61.0963 -0.910675 55.1413 2.74979 51.4888Z" fill="white"/>
</svg>
