<svg width="150" height="210" viewBox="0 0 150 210" fill="none" xmlns="http://www.w3.org/2000/svg">
<path d="M48.5884 24.9583V10.7831C48.5884 4.81874 53.4836 0 59.4906 0C65.4975 0 70.3928 4.82018 70.3928 10.7831V24.9583H93.1436V10.7831C93.1436 4.81874 97.9982 0 104.046 0C110.053 0 114.906 4.82018 114.906 10.7831V26.2653C123.174 28.2669 130.58 32.515 136.464 38.2733C144.816 46.5259 150 57.8797 150 70.379C150 83.7775 143.993 96.359 133.666 104.978C143.993 113.596 150 126.178 150 139.618C150 152.077 144.816 163.431 136.464 171.684C130.58 177.484 123.175 181.732 114.906 183.733V199.175C114.906 205.138 110.051 210 104.046 210C97.9982 210 93.1436 205.138 93.1436 199.175V185.04H70.3928V199.175C70.3928 205.138 65.4975 210 59.4906 210C53.4836 210 48.5884 205.138 48.5884 199.175V185.04H10.9022C4.89528 185.04 0 180.178 0 174.215C0 168.251 4.89528 163.39 10.9022 163.39H22.3008V104.979L22.3008 46.5663H10.9022C4.89528 46.5663 0 41.7461 0 35.7817C0 29.777 4.89528 24.9569 10.9022 24.9569C23.4517 24.9583 36.0403 24.9583 48.5884 24.9583V24.9583ZM104.044 115.804H44.0632L44.0632 163.392H104.044C110.709 163.392 116.756 160.738 121.158 156.407C125.519 152.117 128.235 146.155 128.235 139.62C128.235 133.041 125.519 127.119 121.158 122.789C116.756 118.458 110.707 115.804 104.044 115.804V115.804ZM104.044 46.5663H44.0632V94.1946H104.044C110.709 94.1946 116.756 91.4984 121.158 87.1682C125.519 82.8798 128.235 76.9154 128.235 70.379C128.235 63.844 125.519 57.8796 121.158 53.5494C116.756 49.2624 110.707 46.5663 104.044 46.5663V46.5663Z" fill="white"/>
</svg>
