<svg width="170" height="170" viewBox="0 0 170 170" fill="none" xmlns="http://www.w3.org/2000/svg">
<path d="M42.9839 167.002C42.9839 168.64 41.6694 169.954 40.0432 169.954C38.4057 169.954 37.0911 168.64 37.0911 167.002V144.11C37.0911 142.483 38.4057 141.157 40.0432 141.157C41.6698 141.157 42.9839 142.483 42.9839 144.11V167.002ZM3.56024 133.471C1.93368 133.471 0.607758 132.157 0.607758 130.53C0.607758 128.904 1.93368 127.578 3.56024 127.578H26.4633C28.0895 127.578 29.404 128.904 29.404 130.53C29.404 132.157 28.0891 133.471 26.4633 133.471H3.56024ZM3.56024 42.9376C1.93368 42.9376 0.607758 41.6231 0.607758 39.9969C0.607758 38.3594 1.93368 37.0448 3.56024 37.0448H26.4633C28.0895 37.0448 29.404 38.3594 29.404 39.9969C29.404 41.6235 28.0891 42.9376 26.4633 42.9376H3.56024ZM3.56024 65.5742C1.93368 65.5742 0.607758 64.2597 0.607758 62.6222C0.607758 60.996 1.93368 59.6811 3.56024 59.6811H26.4633C28.0895 59.6811 29.404 60.996 29.404 62.6222C29.404 64.2597 28.0891 65.5742 26.4633 65.5742H3.56024ZM3.56024 88.2101C1.93368 88.2101 0.607758 86.8845 0.607758 85.258C0.607758 83.6314 1.93368 82.3173 3.56024 82.3173H26.4633C28.0895 82.3173 29.404 83.6318 29.404 85.258C29.404 86.8841 28.0891 88.2101 26.4633 88.2101H3.56024ZM3.56024 110.846C1.93368 110.846 0.607758 109.52 0.607758 107.894C0.607758 106.267 1.93368 104.942 3.56024 104.942H26.4633C28.0895 104.942 29.404 106.268 29.404 107.894C29.404 109.52 28.0891 110.846 26.4633 110.846H3.56024ZM37.0907 3.51395C37.0907 1.88739 38.4053 0.561859 40.0428 0.561859C41.6694 0.561859 42.9835 1.88739 42.9835 3.51395V26.4174C42.9835 28.044 41.669 29.3585 40.0428 29.3585C38.4053 29.3585 37.0907 28.044 37.0907 26.4174V3.51395ZM127.624 3.51395C127.624 1.88739 128.95 0.561859 130.576 0.561859C132.203 0.561859 133.517 1.88739 133.517 3.51395V26.4174C133.517 28.044 132.202 29.3585 130.576 29.3585C128.95 29.3585 127.624 28.044 127.624 26.4174V3.51395ZM104.988 3.51395C104.988 1.88739 106.314 0.561859 107.94 0.561859C109.567 0.561859 110.892 1.88739 110.892 3.51395V26.4174C110.892 28.044 109.567 29.3585 107.94 29.3585C106.314 29.3585 104.988 28.044 104.988 26.4174V3.51395ZM82.3632 3.51395C82.3632 1.88739 83.6777 0.561859 85.3039 0.561859C86.93 0.561859 88.256 1.88739 88.256 3.51395V26.4174C88.256 28.044 86.9304 29.3585 85.3039 29.3585C83.6773 29.3585 82.3632 28.044 82.3632 26.4174V3.51395ZM59.7266 3.51395C59.7266 1.88739 61.0415 0.561859 62.6677 0.561859C64.3048 0.561859 65.6197 1.88739 65.6197 3.51395V26.4174C65.6197 28.044 64.3048 29.3585 62.6677 29.3585C61.0411 29.3585 59.7266 28.044 59.7266 26.4174V3.51395ZM167.048 127.578C168.685 127.578 170 128.904 170 130.53C170 132.157 168.685 133.471 167.048 133.471H144.155C142.529 133.471 141.203 132.157 141.203 130.53C141.203 128.904 142.529 127.578 144.155 127.578H167.048ZM167.048 37.0448C168.685 37.0448 170 38.3594 170 39.9969C170 41.6235 168.685 42.9376 167.048 42.9376H144.155C142.529 42.9376 141.203 41.6231 141.203 39.9969C141.203 38.3594 142.529 37.0448 144.155 37.0448H167.048ZM167.048 59.6807C168.685 59.6807 170 60.9956 170 62.6218C170 64.2593 168.685 65.5738 167.048 65.5738H144.155C142.529 65.5738 141.203 64.2593 141.203 62.6218C141.203 60.9956 142.529 59.6807 144.155 59.6807H167.048ZM167.048 82.3173C168.685 82.3173 170 83.6318 170 85.258C170 86.8841 168.685 88.2101 167.048 88.2101H144.155C142.529 88.2101 141.203 86.8845 141.203 85.258C141.203 83.6314 142.529 82.3173 144.155 82.3173H167.048ZM167.048 104.942C168.685 104.942 170 106.268 170 107.894C170 109.52 168.685 110.846 167.048 110.846H144.155C142.529 110.846 141.203 109.52 141.203 107.894C141.203 106.267 142.529 104.942 144.155 104.942H167.048ZM133.517 167.002C133.517 168.64 132.202 169.954 130.576 169.954C128.95 169.954 127.624 168.64 127.624 167.002V144.11C127.624 142.483 128.95 141.157 130.576 141.157C132.203 141.157 133.517 142.483 133.517 144.11V167.002ZM110.892 167.002C110.892 168.64 109.566 169.954 107.94 169.954C106.313 169.954 104.988 168.64 104.988 167.002V144.11C104.988 142.483 106.313 141.157 107.94 141.157C109.566 141.157 110.892 142.483 110.892 144.11V167.002ZM88.256 167.002C88.256 168.64 86.9304 169.954 85.3039 169.954C83.6773 169.954 82.3632 168.64 82.3632 167.002V144.11C82.3632 142.483 83.6777 141.157 85.3039 141.157C86.93 141.157 88.256 142.483 88.256 144.11V167.002ZM65.6197 167.002C65.6197 168.64 64.3048 169.954 62.6677 169.954C61.0411 169.954 59.7266 168.64 59.7266 167.002V144.11C59.7266 142.483 61.0415 141.157 62.6677 141.157C64.3048 141.157 65.6197 142.483 65.6197 144.11V167.002Z" fill="#D8B9C3"/>
<path fill-rule="evenodd" clip-rule="evenodd" d="M40.0429 26.4174H130.576C138.04 26.4174 144.156 32.522 144.156 39.9969V130.53C144.156 137.994 138.04 144.11 130.576 144.11H40.0429C32.5679 144.11 26.4633 137.994 26.4633 130.53V39.9969C26.4633 32.522 32.5679 26.4174 40.0429 26.4174Z" fill="#4D4C7D"/>
<path fill-rule="evenodd" clip-rule="evenodd" d="M118.779 26.4174H130.576C138.04 26.4174 144.156 32.522 144.156 39.9969V130.53C144.156 137.994 138.04 144.11 130.576 144.11H118.779C126.254 144.11 132.369 137.994 132.369 130.53V39.9969C132.369 32.522 126.253 26.4174 118.779 26.4174Z" fill="#363062"/>
<path fill-rule="evenodd" clip-rule="evenodd" d="M49.8572 46.6698H120.751C122.477 46.6698 123.892 48.0845 123.892 49.8113V120.705C123.892 122.431 122.477 123.846 120.751 123.846H49.8572C48.1305 123.846 46.7157 122.431 46.7157 120.705V49.8113C46.7157 48.0845 48.1305 46.6698 49.8572 46.6698Z" fill="#D8B9C3"/>
<path fill-rule="evenodd" clip-rule="evenodd" d="M108.965 46.6698H120.751C122.477 46.6698 123.892 48.0845 123.892 49.8113V120.705C123.892 122.431 122.477 123.846 120.751 123.846H108.965C110.691 123.846 112.106 122.431 112.106 120.705V49.8113C112.106 48.0845 110.692 46.6698 108.965 46.6698Z" fill="#C2A5AF"/>
<path d="M78.1523 63.4352V59.5695C78.1523 57.9429 79.4778 56.6288 81.1044 56.6288C82.731 56.6288 84.0565 57.9433 84.0565 59.5695V63.4352H90.2169V59.5695C90.2169 57.9429 91.5314 56.6288 93.169 56.6288C94.7955 56.6288 96.1097 57.9433 96.1097 59.5695V63.7917C98.3485 64.3375 100.354 65.4961 101.947 67.0664C104.209 69.317 105.612 72.4133 105.612 75.8221C105.612 79.476 103.986 82.9072 101.189 85.2576C103.986 87.608 105.612 91.0392 105.612 94.7045C105.612 98.1023 104.209 101.199 101.947 103.449C100.354 105.031 98.3489 106.189 96.1097 106.735V110.947C96.1097 112.573 94.7951 113.899 93.169 113.899C91.5314 113.899 90.2169 112.573 90.2169 110.947V107.092H84.0565V110.947C84.0565 112.573 82.731 113.899 81.1044 113.899C79.4778 113.899 78.1523 112.573 78.1523 110.947V107.092H67.9477C66.3212 107.092 64.9956 105.766 64.9956 104.14C64.9956 102.513 66.3212 101.188 67.9477 101.188H71.0342V85.258V69.328H67.9477C66.3212 69.328 64.9956 68.0135 64.9956 66.3869C64.9956 64.7494 66.3212 63.4349 67.9477 63.4349C71.3458 63.4353 74.7546 63.4352 78.1523 63.4352ZM93.1686 88.2101H76.927V101.188H93.1686C94.9732 101.188 96.6107 100.464 97.8026 99.2832C98.9836 98.1133 99.7188 96.4871 99.7188 94.7049C99.7188 92.911 98.9836 91.2958 97.8026 90.1149C96.6107 88.934 94.9728 88.2101 93.1686 88.2101ZM93.1686 69.328H76.927V82.3169H93.1686C94.9732 82.3169 96.6107 81.5816 97.8026 80.4007C98.9836 79.2312 99.7188 77.6047 99.7188 75.8221C99.7188 74.0399 98.9836 72.4133 97.8026 71.2324C96.6107 70.0633 94.9728 69.328 93.1686 69.328Z" fill="white"/>
</svg>
