<svg width="211" height="199" viewBox="0 0 211 199" fill="none" xmlns="http://www.w3.org/2000/svg">
<path d="M34.629 80.379C3.07432 83.3475 15.7892 122.957 26.091 142.39C56.6802 187.532 102.374 176.355 118.085 158.053C133.796 139.751 141.682 147.134 165.827 148.395C189.973 149.657 194.096 140.996 187.072 82.1734C180.048 23.3503 129.362 10.6176 107.095 44.9208C84.8271 79.224 74.0724 76.6684 34.629 80.379Z" fill="#F5F5F5"/>
<path d="M79.1333 156.348C79.1333 157.417 78.2751 158.275 77.2135 158.275C76.1444 158.275 75.2862 157.417 75.2862 156.348V141.403C75.2862 140.341 76.1444 139.475 77.2135 139.475C78.2754 139.475 79.1333 140.341 79.1333 141.403V156.348ZM53.3957 134.457C52.3338 134.457 51.4682 133.599 51.4682 132.538C51.4682 131.476 52.3338 130.61 53.3957 130.61H68.3479C69.4095 130.61 70.2677 131.476 70.2677 132.538C70.2677 133.599 69.4093 134.457 68.3479 134.457H53.3957ZM53.3957 75.3531C52.3338 75.3531 51.4682 74.4949 51.4682 73.4332C51.4682 72.3642 52.3338 71.506 53.3957 71.506H68.3479C69.4095 71.506 70.2677 72.3642 70.2677 73.4332C70.2677 74.4951 69.4093 75.3531 68.3479 75.3531H53.3957ZM53.3957 90.1313C52.3338 90.1313 51.4682 89.2731 51.4682 88.204C51.4682 87.1424 52.3338 86.2839 53.3957 86.2839H68.3479C69.4095 86.2839 70.2677 87.1424 70.2677 88.204C70.2677 89.2731 69.4093 90.1313 68.3479 90.1313H53.3957ZM53.3957 104.909C52.3338 104.909 51.4682 104.044 51.4682 102.982C51.4682 101.92 52.3338 101.062 53.3957 101.062H68.3479C69.4095 101.062 70.2677 101.92 70.2677 102.982C70.2677 104.043 69.4093 104.909 68.3479 104.909H53.3957ZM53.3957 119.687C52.3338 119.687 51.4682 118.821 51.4682 117.759C51.4682 116.698 52.3338 115.832 53.3957 115.832H68.3479C69.4095 115.832 70.2677 116.698 70.2677 117.759C70.2677 118.821 69.4093 119.687 68.3479 119.687H53.3957ZM75.286 49.6155C75.286 48.5536 76.1441 47.6882 77.2132 47.6882C78.2751 47.6882 79.133 48.5536 79.133 49.6155V64.5679C79.133 65.6298 78.2748 66.488 77.2132 66.488C76.1441 66.488 75.286 65.6298 75.286 64.5679V49.6155ZM134.39 49.6155C134.39 48.5536 135.256 47.6882 136.318 47.6882C137.379 47.6882 138.237 48.5536 138.237 49.6155V64.5679C138.237 65.6298 137.379 66.488 136.318 66.488C135.256 66.488 134.39 65.6298 134.39 64.5679V49.6155ZM119.612 49.6155C119.612 48.5536 120.478 47.6882 121.54 47.6882C122.602 47.6882 123.467 48.5536 123.467 49.6155V64.5679C123.467 65.6298 122.602 66.488 121.54 66.488C120.478 66.488 119.612 65.6298 119.612 64.5679V49.6155ZM104.842 49.6155C104.842 48.5536 105.7 47.6882 106.762 47.6882C107.823 47.6882 108.689 48.5536 108.689 49.6155V64.5679C108.689 65.6298 107.824 66.488 106.762 66.488C105.7 66.488 104.842 65.6298 104.842 64.5679V49.6155ZM90.0636 49.6155C90.0636 48.5536 90.9221 47.6882 91.9837 47.6882C93.0525 47.6882 93.911 48.5536 93.911 49.6155V64.5679C93.911 65.6298 93.0525 66.488 91.9837 66.488C90.9218 66.488 90.0636 65.6298 90.0636 64.5679V49.6155ZM160.128 130.61C161.197 130.61 162.055 131.476 162.055 132.538C162.055 133.599 161.197 134.457 160.128 134.457H145.183C144.121 134.457 143.255 133.599 143.255 132.538C143.255 131.476 144.121 130.61 145.183 130.61H160.128ZM160.128 71.506C161.197 71.506 162.055 72.3642 162.055 73.4332C162.055 74.4951 161.197 75.3531 160.128 75.3531H145.183C144.121 75.3531 143.255 74.4949 143.255 73.4332C143.255 72.3642 144.121 71.506 145.183 71.506H160.128ZM160.128 86.2837C161.197 86.2837 162.055 87.1421 162.055 88.2037C162.055 89.2728 161.197 90.131 160.128 90.131H145.183C144.121 90.131 143.255 89.2728 143.255 88.2037C143.255 87.1421 144.121 86.2837 145.183 86.2837H160.128ZM160.128 101.062C161.197 101.062 162.055 101.92 162.055 102.982C162.055 104.043 161.197 104.909 160.128 104.909H145.183C144.121 104.909 143.255 104.044 143.255 102.982C143.255 101.92 144.121 101.062 145.183 101.062H160.128ZM160.128 115.832C161.197 115.832 162.055 116.698 162.055 117.759C162.055 118.821 161.197 119.687 160.128 119.687H145.183C144.121 119.687 143.255 118.821 143.255 117.759C143.255 116.698 144.121 115.832 145.183 115.832H160.128ZM138.237 156.348C138.237 157.417 137.379 158.275 136.318 158.275C135.256 158.275 134.39 157.417 134.39 156.348V141.403C134.39 140.341 135.256 139.475 136.318 139.475C137.379 139.475 138.237 140.341 138.237 141.403V156.348ZM123.467 156.348C123.467 157.417 122.601 158.275 121.539 158.275C120.477 158.275 119.612 157.417 119.612 156.348V141.403C119.612 140.341 120.477 139.475 121.539 139.475C122.601 139.475 123.467 140.341 123.467 141.403V156.348ZM108.689 156.348C108.689 157.417 107.824 158.275 106.762 158.275C105.7 158.275 104.842 157.417 104.842 156.348V141.403C104.842 140.341 105.7 139.475 106.762 139.475C107.823 139.475 108.689 140.341 108.689 141.403V156.348ZM93.911 156.348C93.911 157.417 93.0525 158.275 91.9837 158.275C90.9218 158.275 90.0636 157.417 90.0636 156.348V141.403C90.0636 140.341 90.9221 139.475 91.9837 139.475C93.0525 139.475 93.911 140.341 93.911 141.403V156.348Z" fill="#D8B9C3"/>
<path fill-rule="evenodd" clip-rule="evenodd" d="M77.2132 64.5679H136.317C141.19 64.5679 145.183 68.5532 145.183 73.4332V132.538C145.183 137.41 141.19 141.403 136.317 141.403H77.2132C72.3333 141.403 68.3479 137.41 68.3479 132.538V73.4332C68.3479 68.5532 72.3333 64.5679 77.2132 64.5679Z" fill="#4D4C7D"/>
<path fill-rule="evenodd" clip-rule="evenodd" d="M128.616 64.5679H136.318C141.19 64.5679 145.183 68.5532 145.183 73.4332V132.538C145.183 137.41 141.19 141.403 136.318 141.403H128.616C133.496 141.403 137.488 137.41 137.488 132.538V73.4332C137.488 68.5532 133.495 64.5679 128.616 64.5679Z" fill="#363062"/>
<path fill-rule="evenodd" clip-rule="evenodd" d="M83.6205 77.7896H129.903C131.03 77.7896 131.954 78.7132 131.954 79.8405V126.123C131.954 127.25 131.03 128.174 129.903 128.174H83.6205C82.4932 128.174 81.5696 127.25 81.5696 126.123V79.8405C81.5696 78.7132 82.4932 77.7896 83.6205 77.7896Z" fill="#D8B9C3"/>
<path fill-rule="evenodd" clip-rule="evenodd" d="M122.209 77.7896H129.903C131.03 77.7896 131.954 78.7132 131.954 79.8405V126.123C131.954 127.25 131.03 128.174 129.903 128.174H122.209C123.336 128.174 124.259 127.25 124.259 126.123V79.8405C124.259 78.7132 123.336 77.7896 122.209 77.7896Z" fill="#C2A5AF"/>
<path d="M102.093 88.7348V86.2111C102.093 85.1492 102.958 84.2913 104.02 84.2913C105.082 84.2913 105.947 85.1494 105.947 86.2111V88.7348H109.969V86.2111C109.969 85.1492 110.827 84.2913 111.896 84.2913C112.958 84.2913 113.816 85.1494 113.816 86.2111V88.9675C115.278 89.3239 116.587 90.0802 117.627 91.1054C119.104 92.5747 120.02 94.5961 120.02 96.8215C120.02 99.207 118.958 101.447 117.132 102.981C118.958 104.516 120.02 106.756 120.02 109.149C120.02 111.367 119.104 113.388 117.627 114.858C116.587 115.89 115.278 116.647 113.816 117.003V119.752C113.816 120.814 112.958 121.68 111.896 121.68C110.827 121.68 109.969 120.814 109.969 119.752V117.236H105.947V119.752C105.947 120.814 105.082 121.68 104.02 121.68C102.958 121.68 102.093 120.814 102.093 119.752V117.236H95.4308C94.3689 117.236 93.5036 116.37 93.5036 115.309C93.5036 114.247 94.3689 113.381 95.4308 113.381H97.4458V102.982V92.5819H95.4308C94.3689 92.5819 93.5036 91.7237 93.5036 90.6618C93.5036 89.5928 94.3689 88.7346 95.4308 88.7346C97.6493 88.7348 99.8747 88.7348 102.093 88.7348ZM111.896 104.909H101.293V113.382H111.896C113.074 113.382 114.143 112.909 114.921 112.138C115.692 111.374 116.172 110.313 116.172 109.149C116.172 107.978 115.692 106.923 114.921 106.153C114.143 105.382 113.074 104.909 111.896 104.909ZM111.896 92.5819H101.293V101.062H111.896C113.074 101.062 114.143 100.582 114.921 99.8107C115.692 99.0471 116.172 97.9853 116.172 96.8215C116.172 95.658 115.692 94.5961 114.921 93.8252C114.143 93.0619 113.074 92.5819 111.896 92.5819Z" fill="white"/>
</svg>
