<svg width="326" height="307" viewBox="0 0 326 307" fill="none" xmlns="http://www.w3.org/2000/svg">
<path d="M52.3458 123.796C3.41133 128.399 23.1294 189.825 39.1052 219.962C86.5424 289.967 157.403 272.633 181.767 244.251C206.132 215.869 218.361 227.318 255.806 229.274C293.25 231.231 299.645 217.8 288.752 126.579C277.858 35.3568 199.257 15.6112 164.724 68.8079C130.192 122.005 113.514 118.042 52.3458 123.796Z" fill="#3F3971"/>
<path d="M121.984 241.002C121.984 242.64 120.669 243.954 119.043 243.954C117.406 243.954 116.091 242.64 116.091 241.002V218.11C116.091 216.483 117.406 215.157 119.043 215.157C120.67 215.157 121.984 216.483 121.984 218.11V241.002ZM82.5602 207.471C80.9337 207.471 79.6078 206.157 79.6078 204.53C79.6078 202.904 80.9337 201.578 82.5602 201.578H105.463C107.089 201.578 108.404 202.904 108.404 204.53C108.404 206.157 107.089 207.471 105.463 207.471H82.5602ZM82.5602 116.938C80.9337 116.938 79.6078 115.623 79.6078 113.997C79.6078 112.359 80.9337 111.045 82.5602 111.045H105.463C107.089 111.045 108.404 112.359 108.404 113.997C108.404 115.623 107.089 116.938 105.463 116.938H82.5602ZM82.5602 139.574C80.9337 139.574 79.6078 138.26 79.6078 136.622C79.6078 134.996 80.9337 133.681 82.5602 133.681H105.463C107.089 133.681 108.404 134.996 108.404 136.622C108.404 138.26 107.089 139.574 105.463 139.574H82.5602ZM82.5602 162.21C80.9337 162.21 79.6078 160.885 79.6078 159.258C79.6078 157.631 80.9337 156.317 82.5602 156.317H105.463C107.089 156.317 108.404 157.632 108.404 159.258C108.404 160.884 107.089 162.21 105.463 162.21H82.5602ZM82.5602 184.846C80.9337 184.846 79.6078 183.52 79.6078 181.894C79.6078 180.267 80.9337 178.942 82.5602 178.942H105.463C107.089 178.942 108.404 180.268 108.404 181.894C108.404 183.52 107.089 184.846 105.463 184.846H82.5602ZM116.091 77.5139C116.091 75.8874 117.405 74.5619 119.043 74.5619C120.669 74.5619 121.984 75.8874 121.984 77.5139V100.417C121.984 102.044 120.669 103.358 119.043 103.358C117.405 103.358 116.091 102.044 116.091 100.417V77.5139ZM206.624 77.5139C206.624 75.8874 207.95 74.5619 209.576 74.5619C211.203 74.5619 212.517 75.8874 212.517 77.5139V100.417C212.517 102.044 211.202 103.358 209.576 103.358C207.95 103.358 206.624 102.044 206.624 100.417V77.5139ZM183.988 77.5139C183.988 75.8874 185.314 74.5619 186.94 74.5619C188.567 74.5619 189.892 75.8874 189.892 77.5139V100.417C189.892 102.044 188.567 103.358 186.94 103.358C185.314 103.358 183.988 102.044 183.988 100.417V77.5139ZM161.363 77.5139C161.363 75.8874 162.678 74.5619 164.304 74.5619C165.93 74.5619 167.256 75.8874 167.256 77.5139V100.417C167.256 102.044 165.93 103.358 164.304 103.358C162.677 103.358 161.363 102.044 161.363 100.417V77.5139ZM138.727 77.5139C138.727 75.8874 140.041 74.5619 141.668 74.5619C143.305 74.5619 144.62 75.8874 144.62 77.5139V100.417C144.62 102.044 143.305 103.358 141.668 103.358C140.041 103.358 138.727 102.044 138.727 100.417V77.5139ZM246.048 201.578C247.685 201.578 249 202.904 249 204.53C249 206.157 247.685 207.471 246.048 207.471H223.155C221.529 207.471 220.203 206.157 220.203 204.53C220.203 202.904 221.529 201.578 223.155 201.578H246.048ZM246.048 111.045C247.685 111.045 249 112.359 249 113.997C249 115.623 247.685 116.938 246.048 116.938H223.155C221.529 116.938 220.203 115.623 220.203 113.997C220.203 112.359 221.529 111.045 223.155 111.045H246.048ZM246.048 133.681C247.685 133.681 249 134.996 249 136.622C249 138.259 247.685 139.574 246.048 139.574H223.155C221.529 139.574 220.203 138.259 220.203 136.622C220.203 134.996 221.529 133.681 223.155 133.681H246.048ZM246.048 156.317C247.685 156.317 249 157.632 249 159.258C249 160.884 247.685 162.21 246.048 162.21H223.155C221.529 162.21 220.203 160.885 220.203 159.258C220.203 157.631 221.529 156.317 223.155 156.317H246.048ZM246.048 178.942C247.685 178.942 249 180.268 249 181.894C249 183.52 247.685 184.846 246.048 184.846H223.155C221.529 184.846 220.203 183.52 220.203 181.894C220.203 180.267 221.529 178.942 223.155 178.942H246.048ZM212.517 241.002C212.517 242.64 211.202 243.954 209.576 243.954C207.95 243.954 206.624 242.64 206.624 241.002V218.11C206.624 216.483 207.95 215.157 209.576 215.157C211.203 215.157 212.517 216.483 212.517 218.11V241.002ZM189.892 241.002C189.892 242.64 188.566 243.954 186.94 243.954C185.313 243.954 183.988 242.64 183.988 241.002V218.11C183.988 216.483 185.313 215.157 186.94 215.157C188.566 215.157 189.892 216.483 189.892 218.11V241.002ZM167.256 241.002C167.256 242.64 165.93 243.954 164.304 243.954C162.677 243.954 161.363 242.64 161.363 241.002V218.11C161.363 216.483 162.678 215.157 164.304 215.157C165.93 215.157 167.256 216.483 167.256 218.11V241.002ZM144.62 241.002C144.62 242.64 143.305 243.954 141.668 243.954C140.041 243.954 138.727 242.64 138.727 241.002V218.11C138.727 216.483 140.041 215.157 141.668 215.157C143.305 215.157 144.62 216.483 144.62 218.11V241.002Z" fill="#D8B9C3"/>
<path fill-rule="evenodd" clip-rule="evenodd" d="M119.043 100.417H209.576C217.04 100.417 223.156 106.522 223.156 113.997V204.53C223.156 211.994 217.04 218.11 209.576 218.11H119.043C111.568 218.11 105.463 211.994 105.463 204.53V113.997C105.463 106.522 111.568 100.417 119.043 100.417Z" fill="#4D4C7D"/>
<path fill-rule="evenodd" clip-rule="evenodd" d="M197.779 100.417H209.576C217.04 100.417 223.156 106.522 223.156 113.997V204.53C223.156 211.994 217.04 218.11 209.576 218.11H197.779C205.254 218.11 211.369 211.994 211.369 204.53V113.997C211.369 106.522 205.253 100.417 197.779 100.417Z" fill="#363062"/>
<path fill-rule="evenodd" clip-rule="evenodd" d="M128.857 120.67H199.751C201.477 120.67 202.892 122.085 202.892 123.811V194.705C202.892 196.431 201.477 197.846 199.751 197.846H128.857C127.13 197.846 125.716 196.431 125.716 194.705V123.811C125.716 122.085 127.13 120.67 128.857 120.67Z" fill="#D8B9C3"/>
<path fill-rule="evenodd" clip-rule="evenodd" d="M187.965 120.67H199.751C201.477 120.67 202.892 122.085 202.892 123.811V194.705C202.892 196.431 201.477 197.846 199.751 197.846H187.965C189.691 197.846 191.106 196.431 191.106 194.705V123.811C191.106 122.085 189.692 120.67 187.965 120.67Z" fill="#C2A5AF"/>
<path d="M157.152 137.435V133.569C157.152 131.943 158.478 130.629 160.104 130.629C161.731 130.629 163.056 131.943 163.056 133.569V137.435H169.217V133.569C169.217 131.943 170.531 130.629 172.169 130.629C173.796 130.629 175.11 131.943 175.11 133.569V137.792C177.348 138.338 179.354 139.496 180.947 141.066C183.209 143.317 184.612 146.413 184.612 149.822C184.612 153.476 182.986 156.907 180.189 159.258C182.986 161.608 184.612 165.039 184.612 168.705C184.612 172.102 183.209 175.199 180.947 177.449C179.354 179.031 177.349 180.189 175.11 180.735V184.947C175.11 186.573 173.795 187.899 172.169 187.899C170.531 187.899 169.217 186.573 169.217 184.947V181.092H163.056V184.947C163.056 186.573 161.731 187.899 160.104 187.899C158.478 187.899 157.152 186.573 157.152 184.947V181.092H146.948C145.321 181.092 143.996 179.766 143.996 178.14C143.996 176.513 145.321 175.188 146.948 175.188H150.034V159.258V143.328H146.948C145.321 143.328 143.996 142.014 143.996 140.387C143.996 138.749 145.321 137.435 146.948 137.435C150.346 137.435 153.755 137.435 157.152 137.435ZM172.169 162.21H155.927V175.188H172.169C173.973 175.188 175.611 174.464 176.803 173.283C177.984 172.113 178.719 170.487 178.719 168.705C178.719 166.911 177.984 165.296 176.803 164.115C175.611 162.934 173.973 162.21 172.169 162.21ZM172.169 143.328H155.927V156.317H172.169C173.973 156.317 175.611 155.582 176.803 154.401C177.984 153.231 178.719 151.605 178.719 149.822C178.719 148.04 177.984 146.413 176.803 145.232C175.611 144.063 173.973 143.328 172.169 143.328Z" fill="white"/>
</svg>
