<svg width="296" height="308" viewBox="0 0 296 308" fill="none" xmlns="http://www.w3.org/2000/svg">
<g filter="url(#filter0_d_34_24)">
<path d="M234.907 4.1556L230.679 1.65813C226.973 -0.5304 222.377 -0.553943 218.65 1.59711L44.0549 102.359C36.3472 106.809 31.5988 115.033 31.5988 123.934V232.859C31.5988 236.431 33.5081 239.73 36.6047 241.511L41.9293 244.571C42.0196 244.625 42.1109 244.677 42.2032 244.729L42.3478 244.812L42.3507 244.808C45.2143 246.338 48.8139 246.505 52.0273 244.649L227.517 143.33C235.225 138.88 239.973 130.656 239.973 121.755V12.8343C239.972 8.96172 237.856 5.82379 234.907 4.1556Z" fill="#00D16D"/>
<path d="M37.0689 236.013V127.092C37.0689 118.192 41.8173 109.968 49.525 105.517L225.014 4.19836C228.309 2.29619 232.01 2.51721 234.907 4.1556L230.679 1.65813C226.973 -0.5304 222.377 -0.553943 218.65 1.59711L44.0549 102.359C36.3472 106.809 31.5988 115.033 31.5988 123.934V232.859C31.5988 236.431 33.5081 239.73 36.6047 241.511L41.9293 244.571C39.0873 242.875 37.0689 239.794 37.0689 236.013Z" fill="#007A6E"/>
<path d="M42.2026 244.728L42.3473 244.811L42.3501 244.808C42.3011 244.781 42.2516 244.755 42.2026 244.728Z" fill="#2683BF"/>
<path d="M37.0688 203.337L239.915 86.2242V116.072L37.0688 233.287V203.337Z" fill="#284363"/>
<path d="M187.264 50.907L226.631 28.1785V53.3218L187.264 76.0504V50.907Z" fill="#FFD800"/>
<path d="M192.99 52.0904L199.359 48.4134C200.618 47.6865 202.192 48.595 202.192 50.0485V58.6729L199.453 60.3165V61.671L224.102 47.5851V50.1551C224.102 50.9926 223.656 51.7666 222.93 52.1856L190.393 70.9709V68.4297C190.393 67.6076 190.823 66.8456 191.528 66.4214L197.466 62.8443V61.4898L193.21 63.8936C191.951 64.6047 190.393 63.6952 190.393 62.2495V56.5876C190.394 54.733 191.384 53.0182 192.99 52.0904Z" fill="#FF9F2C"/>
<path d="M222.931 46.6996C223.656 46.2811 224.103 45.5071 224.103 44.6692V40.8466L205.892 51.3606C205.167 51.7791 204.72 52.5532 204.72 53.3911V57.2137L222.931 46.6996Z" fill="#FF9F2C"/>
<path d="M205.892 44.6485C205.167 45.0674 204.72 45.841 204.72 46.6789V50.5015L214.744 44.7109C215.469 44.292 215.916 43.5184 215.916 42.681V38.8612L205.892 44.6485Z" fill="#FF9F2C"/>
<path d="M218.128 37.5212C217.394 37.9373 216.94 38.7166 216.94 39.5608V43.4463L222.931 39.9875C223.656 39.569 224.103 38.7949 224.103 37.957V34.1344L218.128 37.5212Z" fill="#FF9F2C"/>
<path d="M50.5562 129.574V146.105L103.592 115.465V98.9538L50.5562 129.574Z" fill="white"/>
<path d="M108.889 95.7207V112.426L180.762 70.93V54.3995L108.889 95.7207Z" fill="white"/>
<path d="M50.5562 158.588L180.762 83.4126V90.8075L50.5562 165.982V158.588Z" fill="#009F5E"/>
<path d="M50.5562 172.312L180.762 97.1372V104.532L50.5562 179.707V172.312Z" fill="#009F5E"/>
<g opacity="0.2">
<path opacity="0.2" d="M70.1654 93.6005L37.0688 185.751V236.013C37.0688 243.69 45.379 248.487 52.0268 244.649L81.3286 227.731L145.026 50.3795L70.1654 93.6005Z" fill="white"/>
</g>
<g opacity="0.2">
<path opacity="0.2" d="M239.972 54.5476V12.8343C239.972 5.15788 231.662 0.359933 225.014 4.19839L181.15 29.5239L117.452 206.875L203.002 157.483L239.972 54.5476Z" fill="white"/>
</g>
<path d="M264.401 106.549L242.303 93.7911L242.247 93.7959C229.898 94.8712 217.936 98.6405 207.201 104.838C193.144 112.954 180.371 123.113 169.3 134.983L167.205 137.23V200.049L189.233 212.767C201.601 211.699 213.584 207.928 224.335 201.721L224.547 201.598C238.506 193.539 251.2 183.464 262.218 171.7L264.401 169.369L264.401 106.549Z" fill="#FFD800"/>
<path d="M167.204 137.23L189.232 149.948C201.6 148.879 213.583 145.108 224.335 138.901L224.547 138.778C238.506 130.719 251.199 120.644 262.218 108.88L264.401 106.549L242.304 93.7916L242.247 93.7964C229.898 94.8717 217.936 98.641 207.201 104.839C193.144 112.954 180.371 123.114 169.3 134.984L167.204 137.23Z" fill="#FF9F2C"/>
<path d="M189.233 149.948L167.204 137.23V200.05L189.233 212.768V149.948Z" fill="#FF812C"/>
<path d="M190.864 142.717C186.897 142.717 183.682 139.501 183.682 135.535V121.813C183.682 104.303 193.804 83.2733 210.448 75.4537C227.348 67.5135 248.561 77.0772 248.561 97.4581V106.607C248.561 115.893 234.196 115.893 234.196 106.607V97.4581C234.196 85.0448 221.585 86.3094 214.292 90.327C203.97 96.0129 198.046 110.627 198.046 121.813V135.535C198.046 139.502 194.831 142.717 190.864 142.717Z" fill="#C8CED6"/>
<path d="M253.294 150.765C253.294 161.197 244.022 175.008 232.584 181.611C221.146 188.215 211.874 185.111 211.874 174.679C211.874 164.247 221.146 150.436 232.584 143.833C244.022 137.229 253.294 140.333 253.294 150.765Z" fill="#FF9F2C"/>
</g>
<defs>
<filter id="filter0_d_34_24" x="0.598755" y="0.00012207" width="294.803" height="308" filterUnits="userSpaceOnUse" color-interpolation-filters="sRGB">
<feFlood flood-opacity="0" result="BackgroundImageFix"/>
<feColorMatrix in="SourceAlpha" type="matrix" values="0 0 0 0 0 0 0 0 0 0 0 0 0 0 0 0 0 0 127 0" result="hardAlpha"/>
<feOffset dy="31"/>
<feGaussianBlur stdDeviation="15.5"/>
<feColorMatrix type="matrix" values="0 0 0 0 0.121933 0 0 0 0 0.103333 0 0 0 0 0.258333 0 0 0 0.56 0"/>
<feBlend mode="normal" in2="BackgroundImageFix" result="effect1_dropShadow_34_24"/>
<feBlend mode="normal" in="SourceGraphic" in2="effect1_dropShadow_34_24" result="shape"/>
</filter>
</defs>
</svg>
