<svg width="100" height="99" viewBox="0 0 100 99" fill="none" xmlns="http://www.w3.org/2000/svg">
<path d="M59.1811 61.4699C71.6942 54.7292 83.328 53.5869 85.1536 58.8954C86.9832 64.226 78.3262 73.9809 65.8005 80.7143C53.2873 87.455 41.6536 88.5973 39.828 83.2888C38.0024 77.9802 46.668 68.2106 59.1811 61.4699V61.4699ZM10.0274 44.3774C29.8543 31.5184 50.2242 30.6138 55.6137 42.4118C57.4683 46.4765 57.3053 51.5036 55.4954 56.8798C65.2573 49.7522 76.8983 46.8217 87.5398 49.1444C86.3206 36.7601 80.1624 25.7987 69.7134 19.7659C50.8068 8.85022 24.9807 18.1864 12.0336 40.6114C11.2961 41.8598 10.6386 43.1151 10.0274 44.3774V44.3774Z" fill="white" fill-opacity="0.58"/>
</svg>
