<svg width="240" height="236" viewBox="0 0 240 236" fill="none" xmlns="http://www.w3.org/2000/svg">
<path d="M109.031 29.7651C104.102 29.7651 100.102 25.7646 100.102 20.8355V11.9058C100.102 6.97658 104.102 2.97607 109.031 2.97607C113.961 2.97607 117.961 6.97658 117.961 11.9058V20.8355C117.961 25.7646 113.961 29.7651 109.031 29.7651Z" fill="#363062"/>
<path d="M186.962 107.699C182.033 107.699 178.033 103.698 178.033 98.769C178.033 62.4787 148.565 31.5552 112.346 29.8407C76.0822 28.1664 43.7522 56.094 40.3366 92.1744C40.1312 94.331 40.0285 96.5455 40.0285 98.769C40.0285 103.698 36.028 107.699 31.0988 107.699C26.1696 107.699 22.1691 103.698 22.1691 98.769C22.1691 95.9829 22.2986 93.1969 22.5576 90.4912C26.8572 45.0569 67.5633 9.85608 113.19 12.0037C158.794 14.1602 195.892 53.0847 195.892 98.769C195.892 103.703 191.891 107.699 186.962 107.699V107.699Z" fill="#363062"/>
<path d="M203.7 168.604C201.499 168.604 199.289 167.791 197.561 166.161C185.149 154.41 178.027 137.863 178.027 120.767C178.027 115.838 182.028 111.838 186.957 111.838C191.886 111.838 195.887 115.838 195.887 120.767C195.887 132.979 200.972 144.802 209.839 153.191C213.42 156.58 213.576 162.232 210.188 165.818C208.433 167.666 206.066 168.604 203.7 168.604V168.604Z" fill="#363062"/>
<path d="M14.355 168.604C11.9841 168.604 9.62221 167.671 7.86753 165.813C4.47871 162.232 4.63498 156.58 8.21579 153.191C17.083 144.802 22.1684 132.983 22.1684 120.767C22.1684 115.838 26.169 111.838 31.0981 111.838C36.0273 111.838 40.0279 115.838 40.0279 120.767C40.0279 137.872 32.9064 154.419 20.4941 166.161C18.7618 167.791 16.5561 168.604 14.355 168.604V168.604Z" fill="#363062"/>
<path d="M109.032 235.148C84.8328 235.148 64.3839 214.699 64.3839 190.499C64.3839 185.57 68.3844 181.57 73.3135 181.57C78.2427 181.57 82.2432 185.57 82.2432 190.499C82.2432 205.019 94.5126 217.288 109.032 217.288C123.552 217.288 135.821 205.019 135.821 190.499C135.821 185.57 139.822 181.57 144.751 181.57C149.68 181.57 153.681 185.57 153.681 190.499C153.681 214.699 133.232 235.148 109.032 235.148Z" fill="#363062"/>
<path d="M26.6286 199.43C15.7478 199.43 6.06801 192.777 1.96482 182.481C-2.14284 172.172 0.30836 160.675 8.21114 153.192C11.7919 149.799 17.44 149.955 20.8377 153.536C24.2265 157.116 24.0747 162.769 20.4939 166.162C16.5827 169.868 18.0204 174.534 18.5562 175.873C19.0875 177.204 21.244 181.57 26.6286 181.57C31.5578 181.57 35.5583 185.571 35.5583 190.5C35.5583 195.429 31.5623 199.43 26.6286 199.43Z" fill="#363062"/>
<path d="M191.426 199.43C186.497 199.43 182.496 195.429 182.496 190.5C182.496 185.571 186.497 181.571 191.426 181.571C196.815 181.571 198.976 177.186 199.512 175.842C200.043 174.507 201.476 169.859 197.565 166.158C193.984 162.765 193.828 157.117 197.217 153.532C200.61 149.951 206.258 149.794 209.843 153.183C217.746 160.666 220.202 172.154 216.103 182.446C211.995 192.764 202.307 199.43 191.426 199.43Z" fill="#363062"/>
<path d="M31.0952 129.693C26.166 129.693 22.1655 125.692 22.1655 120.763V98.7692C22.1655 93.84 26.166 89.8395 31.0952 89.8395C36.0244 89.8395 40.0249 93.84 40.0249 98.7692V120.763C40.0249 125.692 36.0289 129.693 31.0952 129.693Z" fill="#363062"/>
<path d="M186.962 129.693C182.033 129.693 178.032 125.692 178.032 120.763V98.7692C178.032 93.84 182.033 89.8395 186.962 89.8395C191.891 89.8395 195.891 93.84 195.891 98.7692V120.763C195.891 125.692 191.891 129.693 186.962 129.693Z" fill="#363062"/>
<path d="M191.427 199.429H26.6298C21.7006 199.429 17.7001 195.429 17.7001 190.499C17.7001 185.57 21.7006 181.57 26.6298 181.57H191.423C196.352 181.57 200.353 185.57 200.353 190.499C200.353 195.429 196.356 199.429 191.427 199.429Z" fill="#363062"/>
<circle cx="186.422" cy="53.5781" r="53.0781" fill="#D8B9C3" stroke="white"/>
</svg>
