<svg width="240" height="240" viewBox="0 0 240 240" fill="none" xmlns="http://www.w3.org/2000/svg">
<path d="M210 52.5H105C105 44.2275 98.2725 37.5 90 37.5H75C66.7275 37.5 60 44.2275 60 52.5H30C25.86 52.5 22.5 55.8525 22.5 60C22.5 64.1475 25.86 67.5 30 67.5H60C60 75.7725 66.7275 82.5 75 82.5H90C98.2725 82.5 105 75.7725 105 67.5H210C214.14 67.5 217.5 64.1475 217.5 60C217.5 55.8525 214.14 52.5 210 52.5ZM75 67.5V52.5H90L90.0075 59.97C90.0075 59.985 90 59.9925 90 60C90 60.0075 90.0075 60.015 90.0075 60.03V67.5H75Z" fill="black"/>
<path d="M210 112.5H165C165 104.227 158.273 97.5 150 97.5H135C126.727 97.5 120 104.227 120 112.5H30C25.86 112.5 22.5 115.853 22.5 120C22.5 124.147 25.86 127.5 30 127.5H120C120 135.773 126.727 142.5 135 142.5H150C158.273 142.5 165 135.773 165 127.5H210C214.14 127.5 217.5 124.147 217.5 120C217.5 115.853 214.14 112.5 210 112.5ZM135 127.5V112.5H150L150.007 119.97C150.007 119.985 150 119.992 150 120C150 120.008 150.007 120.015 150.007 120.03V127.5H135Z" fill="black"/>
<path d="M210 172.5H105C105 164.227 98.2725 157.5 90 157.5H75C66.7275 157.5 60 164.227 60 172.5H30C25.86 172.5 22.5 175.853 22.5 180C22.5 184.147 25.86 187.5 30 187.5H60C60 195.773 66.7275 202.5 75 202.5H90C98.2725 202.5 105 195.773 105 187.5H210C214.14 187.5 217.5 184.147 217.5 180C217.5 175.853 214.14 172.5 210 172.5ZM75 187.5V172.5H90L90.0075 179.97C90.0075 179.985 90 179.992 90 180C90 180.008 90.0075 180.015 90.0075 180.03V187.5H75Z" fill="black"/>
</svg>
