<svg width="240" height="240" viewBox="0 0 240 240" fill="none" xmlns="http://www.w3.org/2000/svg">
<path d="M197.203 211.266C176.39 228.844 149.391 240 120 240C76.2654 240 37.8743 215.906 17.0623 180.75L24.8538 144.834L59.3904 138.422C67.406 164.296 91.593 183.281 120 183.281C133.781 183.281 146.578 178.922 157.125 171.188L190.312 176.25L197.203 211.266Z" fill="#59C36A"/>
<path d="M197.203 211.266L190.313 176.25L157.125 171.187C146.578 178.922 133.781 183.281 120 183.281V240C149.391 240 176.391 228.844 197.203 211.266Z" fill="#00A66C"/>
<path d="M56.7187 120C56.7187 126.468 57.7031 132.656 59.3906 138.422L17.0625 180.75C6.51563 163.031 0 142.218 0 120C0 97.7807 6.51563 76.9686 17.0625 59.2499L51.0342 65.0966L59.3906 101.578C57.7031 107.343 56.7187 113.531 56.7187 120Z" fill="#FFDA2D"/>
<path d="M240 120C240 156.562 223.079 189.328 197.203 211.266L157.125 171.188C165.281 165.281 172.172 157.406 176.672 148.125H120C116.062 148.125 112.969 145.031 112.969 141.094V98.9063C112.969 94.9683 116.062 91.875 120 91.875H231C234.375 91.875 237.328 94.2652 237.891 97.6402C239.297 104.953 240 112.546 240 120V120Z" fill="#4086F4"/>
<path d="M176.672 148.125C172.172 157.406 165.281 165.281 157.125 171.188L197.203 211.266C223.079 189.328 240 156.563 240 120C240 112.546 239.297 104.953 237.89 97.6402C237.328 94.2652 234.375 91.875 231 91.875H120V148.125H176.672Z" fill="#4175DF"/>
<path d="M199.172 33.5152C199.312 35.4839 198.468 37.3125 197.203 38.7183L167.109 68.6714C164.719 71.2027 160.781 71.4839 157.969 69.3745C146.859 61.0781 133.781 56.7188 120 56.7188C91.593 56.7188 67.406 75.7027 59.3904 101.578L17.0623 59.25C37.8743 24.0938 76.2654 0 120 0C147.984 0 175.265 10.3125 196.64 28.312C198.187 29.5781 199.031 31.5464 199.172 33.5152V33.5152Z" fill="#FF7F23"/>
<path d="M157.969 69.3745C160.781 71.4844 164.718 71.2027 167.109 68.6714L197.203 38.7183C198.469 37.3125 199.313 35.4844 199.172 33.5152C199.03 31.5459 198.187 29.5781 196.64 28.312C175.266 10.3125 147.984 0 120 0V56.7188C133.781 56.7188 146.859 61.0781 157.969 69.3745Z" fill="#F03800"/>
</svg>
