<svg width="220" height="160" viewBox="0 0 220 160" fill="none" xmlns="http://www.w3.org/2000/svg">
<path d="M190 0H30C22.0435 0 14.4129 3.1607 8.7868 8.78679C3.1607 14.4129 0 22.0435 0 30V130C0 137.956 3.1607 145.587 8.7868 151.213C14.4129 156.839 22.0435 160 30 160H190C197.956 160 205.587 156.839 211.213 151.213C216.839 145.587 220 137.956 220 130V30C220 22.0435 216.839 14.4129 211.213 8.78679C205.587 3.1607 197.956 0 190 0V0ZM30 20H190C192.652 20 195.196 21.0536 197.071 22.9289C198.946 24.8043 200 27.3478 200 30V40H20V30C20 27.3478 21.0536 24.8043 22.9289 22.9289C24.8043 21.0536 27.3478 20 30 20V20ZM190 140H30C27.3478 140 24.8043 138.946 22.9289 137.071C21.0536 135.196 20 132.652 20 130V79.9999H200V130C200 132.652 198.946 135.196 197.071 137.071C195.196 138.946 192.652 140 190 140Z" fill="#363062"/>
</svg>
