<svg width="182" height="160" viewBox="0 0 182 160" fill="none" xmlns="http://www.w3.org/2000/svg">
<path d="M169 0H9C1.04351 0 -6.58711 3.1607 -12.2132 8.78679C-17.8393 14.4129 -21 22.0435 -21 30V130C-21 137.956 -17.8393 145.587 -12.2132 151.213C-6.58711 156.839 1.04351 160 9 160H169C176.956 160 184.587 156.839 190.213 151.213C195.839 145.587 199 137.956 199 130V30C199 22.0435 195.839 14.4129 190.213 8.78679C184.587 3.1607 176.956 0 169 0V0ZM9 20H169C171.652 20 174.196 21.0536 176.071 22.9289C177.946 24.8043 179 27.3478 179 30V40H-1V30C-1 27.3478 0.053568 24.8043 1.92893 22.9289C3.8043 21.0536 6.34784 20 9 20V20ZM169 140H9C6.34784 140 3.8043 138.946 1.92893 137.071C0.053568 135.196 -1 132.652 -1 130V79.9999H179V130C179 132.652 177.946 135.196 176.071 137.071C174.196 138.946 171.652 140 169 140Z" fill="#363062" fill-opacity="0.25"/>
</svg>
