<svg width="220" height="237" viewBox="0 0 220 237" fill="none" xmlns="http://www.w3.org/2000/svg">
<path d="M108.404 126.856C92.2863 126.856 76.9391 119.194 65.1853 105.286C54.3957 92.517 48.2051 76.0811 48.2051 60.1988C48.2051 44.2331 54.5475 28.9213 65.837 17.6318C77.1264 6.34235 92.4382 0 108.404 0C124.37 0 139.681 6.34235 150.971 17.6318C162.26 28.9213 168.603 44.2331 168.603 60.1988C168.603 76.0811 162.412 92.517 151.622 105.286C139.869 119.194 124.522 126.856 108.404 126.856ZM108.404 23.0647C98.5587 23.0757 89.1199 26.9915 82.1583 33.9531C75.1967 40.9147 71.2808 50.3536 71.2698 60.1988C71.2698 70.564 75.5783 81.8519 82.8021 90.395C90.0998 99.0351 99.1919 103.773 108.404 103.773C117.616 103.773 126.708 99.0166 134.006 90.395C141.23 81.8519 145.538 70.5594 145.538 60.1988C145.527 50.3536 141.611 40.9147 134.65 33.9531C127.688 26.9915 118.249 23.0757 108.404 23.0647V23.0647Z" fill="#363062"/>
<path d="M208.505 236.182C205.446 236.182 202.513 234.967 200.35 232.804C198.187 230.642 196.972 227.708 196.972 224.65V198.204C196.972 175.536 182.875 161.453 160.184 161.453H59.8528C37.1618 161.453 23.0647 175.536 23.0647 198.204V224.65C23.0647 227.708 21.8497 230.642 19.6869 232.804C17.5242 234.967 14.5909 236.182 11.5323 236.182C8.47377 236.182 5.54047 234.967 3.37774 232.804C1.21501 230.642 0 227.708 0 224.65V198.204C0 180.799 5.74771 165.858 16.6066 154.994C27.4654 144.131 42.439 138.388 59.8344 138.388H160.166C177.575 138.388 192.521 144.131 203.393 154.994C214.266 165.858 220 180.799 220 198.204V224.65C220 227.702 218.79 230.63 216.635 232.791C214.481 234.953 211.557 236.172 208.505 236.182V236.182Z" fill="#363062"/>
</svg>
