<svg width="200" height="196" viewBox="0 0 200 196" fill="none" xmlns="http://www.w3.org/2000/svg">
<path d="M90.8593 24.8043C86.7517 24.8043 83.4179 21.4706 83.4179 17.3629V9.92151C83.4179 5.81385 86.7517 2.4801 90.8593 2.4801C94.967 2.4801 98.3007 5.81385 98.3007 9.92151V17.3629C98.3007 21.4706 94.967 24.8043 90.8593 24.8043Z" fill="white"/>
<path d="M155.802 89.749C151.694 89.749 148.36 86.4152 148.36 82.3076C148.36 52.0657 123.803 26.2961 93.6211 24.8674C63.4015 23.4721 36.4599 46.7451 33.6135 76.8121C33.4424 78.6092 33.3568 80.4547 33.3568 82.3076C33.3568 86.4152 30.023 89.749 25.9154 89.749C21.8077 89.749 18.4739 86.4152 18.4739 82.3076C18.4739 79.9859 18.5818 77.6642 18.7977 75.4094C22.3807 37.5475 56.3024 8.21348 94.3243 10.0031C132.328 11.8002 163.243 44.2373 163.243 82.3076C163.243 86.419 159.909 89.749 155.802 89.749V89.749Z" fill="white"/>
<path d="M169.75 140.503C167.916 140.503 166.074 139.826 164.634 138.468C154.29 128.675 148.356 114.886 148.356 100.639C148.356 96.5317 151.69 93.198 155.797 93.198C159.905 93.198 163.239 96.5317 163.239 100.639C163.239 110.816 167.477 120.668 174.866 127.659C177.85 130.483 177.98 135.194 175.156 138.181C173.694 139.722 171.722 140.503 169.75 140.503V140.503Z" fill="white"/>
<path d="M11.962 140.503C9.98634 140.503 8.01809 139.725 6.55585 138.178C3.73183 135.194 3.86205 130.483 6.84606 127.659C14.2354 120.668 18.4733 110.819 18.4733 100.639C18.4733 96.5317 21.807 93.198 25.9147 93.198C30.0224 93.198 33.3561 96.5317 33.3561 100.639C33.3561 114.893 27.4216 128.682 17.078 138.468C15.6344 139.826 13.7963 140.503 11.962 140.503V140.503Z" fill="white"/>
<path d="M90.8594 195.957C70.6931 195.957 53.6523 178.916 53.6523 158.75C53.6523 154.642 56.9861 151.308 61.0937 151.308C65.2014 151.308 68.5351 154.642 68.5351 158.75C68.5351 170.849 78.7596 181.074 90.8594 181.074C102.959 181.074 113.184 170.849 113.184 158.75C113.184 154.642 116.517 151.308 120.625 151.308C124.733 151.308 128.066 154.642 128.066 158.75C128.066 178.916 111.026 195.957 90.8594 195.957Z" fill="white"/>
<path d="M22.1905 166.191C13.1232 166.191 5.05668 160.648 1.63735 152.068C-1.7857 143.477 0.256966 133.896 6.84261 127.66C9.82662 124.832 14.5333 124.962 17.3648 127.946C20.1888 130.93 20.0623 135.641 17.0783 138.469C13.8189 141.557 15.017 145.445 15.4635 146.561C15.9063 147.67 17.7034 151.309 22.1905 151.309C26.2982 151.309 29.6319 154.642 29.6319 158.75C29.6319 162.858 26.3019 166.191 22.1905 166.191Z" fill="white"/>
<path d="M159.522 166.192C155.414 166.192 152.08 162.858 152.08 158.75C152.08 154.643 155.414 151.309 159.522 151.309C164.012 151.309 165.813 147.655 166.26 146.535C166.703 145.423 167.897 141.549 164.638 138.465C161.654 135.637 161.523 130.931 164.347 127.943C167.175 124.959 171.882 124.829 174.869 127.653C181.455 133.889 183.501 143.462 180.086 152.038C176.663 160.637 168.589 166.192 159.522 166.192Z" fill="white"/>
<path d="M25.9117 108.077C21.8041 108.077 18.4703 104.744 18.4703 100.636V82.3077C18.4703 78.2001 21.8041 74.8663 25.9117 74.8663C30.0194 74.8663 33.3532 78.2001 33.3532 82.3077V100.636C33.3532 104.744 30.0231 108.077 25.9117 108.077Z" fill="white"/>
<path d="M155.801 108.077C151.693 108.077 148.359 104.744 148.359 100.636V82.3077C148.359 78.2001 151.693 74.8663 155.801 74.8663C159.909 74.8663 163.242 78.2001 163.242 82.3077V100.636C163.242 104.744 159.909 108.077 155.801 108.077Z" fill="white"/>
<path d="M159.522 166.191H22.191C18.0834 166.191 14.7496 162.857 14.7496 158.75C14.7496 154.642 18.0834 151.308 22.191 151.308H159.519C163.626 151.308 166.96 154.642 166.96 158.75C166.96 162.857 163.63 166.191 159.522 166.191Z" fill="white"/>
<circle cx="155.351" cy="44.6485" r="44.1485" fill="#E52020" stroke="#675F9B"/>
</svg>
