<svg width="182" height="194" viewBox="0 0 182 194" fill="none" xmlns="http://www.w3.org/2000/svg">
<path d="M90.8593 22.8043C86.7517 22.8043 83.4179 19.4706 83.4179 15.3629V7.92151C83.4179 3.81385 86.7517 0.480103 90.8593 0.480103C94.967 0.480103 98.3007 3.81385 98.3007 7.92151V15.3629C98.3007 19.4706 94.967 22.8043 90.8593 22.8043Z" fill="white"/>
<path d="M155.802 87.749C151.694 87.749 148.36 84.4152 148.36 80.3076C148.36 50.0657 123.803 24.2961 93.6211 22.8674C63.4015 21.4721 36.4599 44.7451 33.6135 74.8121C33.4424 76.6092 33.3568 78.4547 33.3568 80.3076C33.3568 84.4152 30.023 87.749 25.9154 87.749C21.8077 87.749 18.4739 84.4152 18.4739 80.3076C18.4739 77.9859 18.5818 75.6642 18.7977 73.4094C22.3807 35.5475 56.3024 6.21348 94.3243 8.00314C132.328 9.80024 163.243 42.2373 163.243 80.3076C163.243 84.419 159.909 87.749 155.802 87.749V87.749Z" fill="white"/>
<path d="M169.75 138.503C167.916 138.503 166.074 137.826 164.634 136.468C154.29 126.675 148.356 112.886 148.356 98.6394C148.356 94.5317 151.69 91.198 155.797 91.198C159.905 91.198 163.239 94.5317 163.239 98.6394C163.239 108.816 167.477 118.668 174.866 125.659C177.85 128.483 177.98 133.194 175.156 136.181C173.694 137.722 171.722 138.503 169.75 138.503V138.503Z" fill="white"/>
<path d="M11.962 138.503C9.98634 138.503 8.01809 137.725 6.55585 136.178C3.73183 133.194 3.86205 128.483 6.84606 125.659C14.2354 118.668 18.4733 108.819 18.4733 98.6394C18.4733 94.5317 21.807 91.198 25.9147 91.198C30.0224 91.198 33.3561 94.5317 33.3561 98.6394C33.3561 112.893 27.4216 126.682 17.078 136.468C15.6344 137.826 13.7963 138.503 11.962 138.503V138.503Z" fill="white"/>
<path d="M90.8594 193.957C70.6931 193.957 53.6523 176.916 53.6523 156.75C53.6523 152.642 56.9861 149.308 61.0937 149.308C65.2014 149.308 68.5351 152.642 68.5351 156.75C68.5351 168.849 78.7596 179.074 90.8594 179.074C102.959 179.074 113.184 168.849 113.184 156.75C113.184 152.642 116.517 149.308 120.625 149.308C124.733 149.308 128.066 152.642 128.066 156.75C128.066 176.916 111.026 193.957 90.8594 193.957Z" fill="white"/>
<path d="M22.1905 164.191C13.1232 164.191 5.05668 158.648 1.63735 150.068C-1.7857 141.477 0.256966 131.896 6.84261 125.66C9.82662 122.832 14.5333 122.962 17.3648 125.946C20.1888 128.93 20.0623 133.641 17.0783 136.469C13.8189 139.557 15.017 143.445 15.4635 144.561C15.9063 145.67 17.7034 149.309 22.1905 149.309C26.2982 149.309 29.6319 152.642 29.6319 156.75C29.6319 160.858 26.3019 164.191 22.1905 164.191Z" fill="white"/>
<path d="M159.522 164.192C155.414 164.192 152.08 160.858 152.08 156.75C152.08 152.643 155.414 149.309 159.522 149.309C164.012 149.309 165.813 145.655 166.26 144.535C166.703 143.423 167.897 139.549 164.638 136.465C161.654 133.637 161.523 128.931 164.347 125.943C167.175 122.959 171.882 122.829 174.869 125.653C181.455 131.889 183.501 141.462 180.086 150.038C176.663 158.637 168.589 164.192 159.522 164.192Z" fill="white"/>
<path d="M25.9117 106.077C21.8041 106.077 18.4703 102.744 18.4703 98.6359V80.3077C18.4703 76.2001 21.8041 72.8663 25.9117 72.8663C30.0194 72.8663 33.3532 76.2001 33.3532 80.3077V98.6359C33.3532 102.744 30.0231 106.077 25.9117 106.077Z" fill="white"/>
<path d="M155.801 106.077C151.693 106.077 148.359 102.744 148.359 98.6359V80.3077C148.359 76.2001 151.693 72.8663 155.801 72.8663C159.909 72.8663 163.242 76.2001 163.242 80.3077V98.6359C163.242 102.744 159.909 106.077 155.801 106.077Z" fill="white"/>
<path d="M159.522 164.191H22.191C18.0834 164.191 14.7496 160.857 14.7496 156.75C14.7496 152.642 18.0834 149.308 22.191 149.308H159.519C163.626 149.308 166.96 152.642 166.96 156.75C166.96 160.857 163.63 164.191 159.522 164.191Z" fill="white"/>
</svg>
