<svg width="200" height="200" viewBox="0 0 200 200" fill="none" xmlns="http://www.w3.org/2000/svg">
<circle cx="100" cy="100" r="100" fill="#C4C4C4"/>
<path d="M100.078 99.4531C91.8891 99.4531 84.0914 95.5602 78.1195 88.4938C72.6375 82.0063 69.4922 73.6555 69.4922 65.5859C69.4922 57.474 72.7146 49.6944 78.4506 43.9584C84.1866 38.2224 91.9662 35 100.078 35C108.19 35 115.97 38.2224 121.706 43.9584C127.442 49.6944 130.664 57.474 130.664 65.5859C130.664 73.6555 127.519 82.0063 122.037 88.4938C116.065 95.5602 108.267 99.4531 100.078 99.4531ZM100.078 46.7188C95.0759 46.7243 90.2803 48.7139 86.7432 52.251C83.2061 55.7881 81.2165 60.5838 81.2109 65.5859C81.2109 70.8523 83.4 76.5875 87.0703 80.9281C90.7781 85.318 95.3977 87.725 100.078 87.725C104.759 87.725 109.378 85.3086 113.086 80.9281C116.756 76.5875 118.945 70.85 118.945 65.5859C118.94 60.5838 116.95 55.7881 113.413 52.251C109.876 48.7139 105.08 46.7243 100.078 46.7188V46.7188Z" fill="#363062"/>
<path d="M150.937 155C149.383 155 147.893 154.383 146.794 153.284C145.695 152.185 145.078 150.695 145.078 149.141V135.704C145.078 124.187 137.916 117.031 126.387 117.031H75.4102C63.8812 117.031 56.7187 124.187 56.7187 135.704V149.141C56.7187 150.695 56.1014 152.185 55.0026 153.284C53.9037 154.383 52.4134 155 50.8594 155C49.3054 155 47.815 154.383 46.7162 153.284C45.6173 152.185 45 150.695 45 149.141V135.704C45 126.861 47.9203 119.27 53.4375 113.75C58.9547 108.23 66.5625 105.312 75.4008 105.312H126.377C135.223 105.312 142.816 108.23 148.341 113.75C153.865 119.27 156.778 126.861 156.778 135.704V149.141C156.778 150.691 156.163 152.179 155.069 153.277C153.974 154.376 152.488 154.995 150.937 155V155Z" fill="#363062"/>
</svg>
