<svg width="240" height="241" viewBox="0 0 240 241" fill="none" xmlns="http://www.w3.org/2000/svg">
<path d="M237.924 227.811L179.588 169.474C195.236 151.484 204.711 128.011 204.711 102.355C204.711 45.8816 158.776 0 102.355 0C45.8816 0 0 45.9348 0 102.355C0 158.776 45.9348 204.711 102.355 204.711C128.011 204.711 151.484 195.236 169.474 179.588L227.811 237.924C229.195 239.308 231.058 240.053 232.868 240.053C234.677 240.053 236.54 239.361 237.924 237.924C240.692 235.156 240.692 230.579 237.924 227.811ZM14.318 102.355C14.318 53.8124 53.8124 14.3713 102.302 14.3713C150.845 14.3713 190.286 53.8656 190.286 102.355C190.286 150.845 150.845 190.393 102.302 190.393C53.8124 190.393 14.318 150.898 14.318 102.355Z" fill="#A3A3A3"/>
</svg>
