<svg width="250" height="250" viewBox="0 0 250 250" fill="none" xmlns="http://www.w3.org/2000/svg">
<path d="M12.5 112.5H100C103.315 112.5 106.495 111.183 108.839 108.839C111.183 106.495 112.5 103.315 112.5 100V12.5C112.5 9.1848 111.183 6.00537 108.839 3.66117C106.495 1.31696 103.315 0 100 0H12.5C9.1848 0 6.00537 1.31696 3.66117 3.66117C1.31696 6.00537 0 9.1848 0 12.5V100C0 103.315 1.31696 106.495 3.66117 108.839C6.00537 111.183 9.1848 112.5 12.5 112.5ZM25 25H87.5V87.5H25V25Z" fill="white"/>
<path d="M150 112.5H237.5C240.815 112.5 243.995 111.183 246.339 108.839C248.683 106.495 250 103.315 250 100V12.5C250 9.1848 248.683 6.00537 246.339 3.66117C243.995 1.31696 240.815 0 237.5 0H150C146.685 0 143.505 1.31696 141.161 3.66117C138.817 6.00537 137.5 9.1848 137.5 12.5V100C137.5 103.315 138.817 106.495 141.161 108.839C143.505 111.183 146.685 112.5 150 112.5ZM162.5 25H225V87.5H162.5V25Z" fill="white"/>
<path d="M12.5 250H100C103.315 250 106.495 248.683 108.839 246.339C111.183 243.995 112.5 240.815 112.5 237.5V150C112.5 146.685 111.183 143.505 108.839 141.161C106.495 138.817 103.315 137.5 100 137.5H12.5C9.1848 137.5 6.00537 138.817 3.66117 141.161C1.31696 143.505 0 146.685 0 150V237.5C0 240.815 1.31696 243.995 3.66117 246.339C6.00537 248.683 9.1848 250 12.5 250ZM25 162.5H87.5V225H25V162.5Z" fill="white"/>
<path d="M150 250H237.5C240.815 250 243.995 248.683 246.339 246.339C248.683 243.995 250 240.815 250 237.5V150C250 146.685 248.683 143.505 246.339 141.161C243.995 138.817 240.815 137.5 237.5 137.5H150C146.685 137.5 143.505 138.817 141.161 141.161C138.817 143.505 137.5 146.685 137.5 150V237.5C137.5 240.815 138.817 243.995 141.161 246.339C143.505 248.683 146.685 250 150 250ZM162.5 162.5H225V225H162.5V162.5Z" fill="white"/>
</svg>
