<svg width="240" height="240" viewBox="0 0 240 240" fill="none" xmlns="http://www.w3.org/2000/svg">
<path d="M217.875 87.8249C217.466 86.8336 216.85 85.9415 216.067 85.2086C215.285 84.4757 214.354 83.9192 213.338 83.5765C212.322 83.2338 211.245 83.1129 210.178 83.222C209.111 83.3311 208.08 83.6676 207.155 84.2089C206.229 84.7501 205.431 85.4835 204.812 86.3597C204.194 87.2358 203.771 88.2342 203.572 89.2877C203.372 90.3412 203.401 91.4252 203.656 92.4666C203.911 93.5081 204.386 94.4827 205.05 95.3249C208.263 100.479 209.977 106.426 210 112.5C210.064 113.574 210.064 114.651 210 115.725C209.39 121.088 207.513 126.23 204.525 130.725L203.475 132.225C197.743 139.59 190.507 145.65 182.25 150H181.5L180.75 150.375C162.004 160.155 141.143 165.177 120 165C98.9016 165.339 78.042 160.498 59.25 150.9L58.5 150.525L57.525 150C49.4125 145.59 42.3308 139.506 36.75 132.15L35.85 130.875C32.8215 126.387 30.8943 121.248 30.225 115.875C30.0799 114.756 30.0048 113.628 30 112.5C30 84.0749 71.25 59.9999 120 59.9999C125.286 59.9994 130.568 60.2747 135.825 60.8249C137.814 61.0338 139.805 60.4439 141.359 59.1851C142.913 57.9262 143.904 56.1016 144.112 54.1124C144.321 52.1233 143.731 50.1327 142.473 48.5785C141.214 47.0243 139.389 46.0338 137.4 45.8249C131.618 45.2458 125.81 44.9705 120 44.9999C61.125 44.9999 15 74.9999 15 112.5V157.5C14.9107 159.074 14.9107 160.651 15 162.225C15.9978 170.761 19.1746 178.896 24.225 185.85C31.0118 195.121 39.7398 202.8 49.8 208.35C71.401 219.786 95.5641 225.517 120 225C144.386 225.383 168.467 219.549 189.975 208.05C200.032 202.496 208.76 194.818 215.55 185.55C220.624 178.729 223.877 170.727 225 162.3C225.094 160.701 225.094 159.098 225 157.5V112.5C224.937 103.776 222.472 95.2391 217.875 87.8249V87.8249ZM210 157.5C210.061 158.574 210.061 159.651 210 160.725C209.255 166.665 207.009 172.318 203.475 177.15C197.847 184.519 190.714 190.604 182.55 195C163.309 205.223 141.785 210.385 120 210C98.2403 210.375 76.7423 205.214 57.525 195C49.4185 190.614 42.337 184.555 36.75 177.225C33.1145 172.371 30.7899 166.663 30 160.65C29.939 159.601 29.939 158.549 30 157.5V147.525C31.575 149.175 33.225 150.75 35.025 152.325L36.45 153.525C37.95 154.775 39.525 156 41.175 157.2L42.975 158.55C45.15 160.05 47.4 161.475 49.8 162.9L52.05 164.1C73.0569 174.882 96.3899 180.342 120 180C143.666 180.331 167.05 174.846 188.1 164.025L189.975 163.05C192.45 161.625 194.7 160.125 196.95 158.625L198.75 157.5C200.45 156.3 202.05 155.05 203.55 153.75L204.975 152.55C206.775 150.975 208.425 149.4 210 147.75V157.5Z" fill="white"/>
<path d="M127.5 75C127.5 73.0109 126.71 71.1032 125.303 69.6967C123.897 68.2902 121.989 67.5 120 67.5C118.011 67.5 116.103 68.2902 114.697 69.6967C113.29 71.1032 112.5 73.0109 112.5 75C106.533 75 100.81 77.3705 96.5901 81.5901C92.3705 85.8097 90 91.5326 90 97.5C90 103.467 92.3705 109.19 96.5901 113.41C100.81 117.629 106.533 120 112.5 120V135H97.5C95.5109 135 93.6032 135.79 92.1967 137.197C90.7902 138.603 90 140.511 90 142.5C90 144.489 90.7902 146.397 92.1967 147.803C93.6032 149.21 95.5109 150 97.5 150H112.5C112.5 151.989 113.29 153.897 114.697 155.303C116.103 156.71 118.011 157.5 120 157.5C121.989 157.5 123.897 156.71 125.303 155.303C126.71 153.897 127.5 151.989 127.5 150C133.467 150 139.19 147.629 143.41 143.41C147.629 139.19 150 133.467 150 127.5C150 121.533 147.629 115.81 143.41 111.59C139.19 107.371 133.467 105 127.5 105V90H142.5C144.489 90 146.397 89.2098 147.803 87.8033C149.21 86.3968 150 84.4891 150 82.5C150 80.5109 149.21 78.6032 147.803 77.1967C146.397 75.7902 144.489 75 142.5 75H127.5ZM135 127.5C135 129.489 134.21 131.397 132.803 132.803C131.397 134.21 129.489 135 127.5 135V120C129.489 120 131.397 120.79 132.803 122.197C134.21 123.603 135 125.511 135 127.5ZM112.5 105C110.511 105 108.603 104.21 107.197 102.803C105.79 101.397 105 99.4891 105 97.5C105 95.5109 105.79 93.6032 107.197 92.1967C108.603 90.7902 110.511 90 112.5 90V105Z" fill="white"/>
<path d="M165 60C165.987 60.0057 166.965 59.8165 167.879 59.4433C168.793 59.07 169.624 58.5201 170.325 57.825L180 48.075V90C180 91.9891 180.79 93.8967 182.197 95.3033C183.603 96.7098 185.511 97.5 187.5 97.5C189.489 97.5 191.397 96.7098 192.803 95.3033C194.21 93.8967 195 91.9891 195 90V48.075L204.675 57.75C206.11 58.9787 207.955 59.6207 209.843 59.5478C211.73 59.4749 213.521 58.6924 214.857 57.3567C216.192 56.021 216.975 54.2304 217.048 52.3429C217.121 50.4553 216.479 48.6097 215.25 47.175L192.75 24.675C191.345 23.2781 189.444 22.494 187.462 22.494C185.481 22.494 183.58 23.2781 182.175 24.675L159.675 47.175C158.617 48.224 157.896 49.5642 157.603 51.0249C157.31 52.4855 157.458 54.0002 158.03 55.3761C158.601 56.7519 159.569 57.9264 160.81 58.75C162.052 59.5735 163.51 60.0086 165 60Z" fill="white"/>
</svg>
