<svg width="182" height="218" viewBox="0 0 182 218" fill="none" xmlns="http://www.w3.org/2000/svg">
<g clip-path="url(#clip0_33_1361)">
<path d="M-21.0767 18.4614V36.923H145.077V18.4614H-21.0767ZM-21.0767 -0.00012207H145.077C155.273 -0.00012207 163.539 8.26539 163.539 18.4614V36.923C163.539 47.119 155.273 55.3845 145.077 55.3845H-21.0767C-31.2727 55.3845 -39.5383 47.119 -39.5383 36.923V18.4614C-39.5383 8.26539 -31.2727 -0.00012207 -21.0767 -0.00012207Z" fill="white"/>
<path d="M126.616 55.3845H-2.61491V212.308C-2.61491 217.406 1.51784 221.538 6.61586 221.538H117.385C122.483 221.538 126.616 217.406 126.616 212.308V55.3845ZM145.077 212.308C145.077 227.602 132.679 240 117.385 240H6.61586C-8.67818 240 -21.0765 227.602 -21.0765 212.308V36.923H145.077V212.308Z" fill="white"/>
<path d="M98.9233 138.461C98.9233 143.559 94.7905 147.692 89.6925 147.692C84.5945 147.692 80.4618 143.559 80.4618 138.461V115.385C80.4618 112.836 78.3954 110.769 75.8464 110.769C73.2974 110.769 71.231 112.836 71.231 115.385V124.615C71.231 137.36 60.8991 147.692 48.1541 147.692C35.409 147.692 25.0771 137.36 25.0771 124.615V101.538C25.0771 96.4404 29.2099 92.3076 34.3079 92.3076C39.4059 92.3076 43.5387 96.4404 43.5387 101.538V124.615C43.5387 127.164 45.6051 129.231 48.1541 129.231C50.7031 129.231 52.7694 127.164 52.7694 124.615V115.385C52.7694 102.64 63.1013 92.3076 75.8464 92.3076C88.5914 92.3076 98.9233 102.64 98.9233 115.385V138.461Z" fill="white"/>
<path d="M108.154 110.769C113.252 110.769 117.385 114.902 117.385 120C117.385 125.098 113.252 129.231 108.154 129.231H89.6928C84.5947 129.231 80.462 125.098 80.462 120C80.462 114.902 84.5947 110.769 89.6928 110.769H108.154Z" fill="white"/>
<path d="M15.8463 129.231C10.7483 129.231 6.61552 125.098 6.61552 120C6.61552 114.902 10.7483 110.769 15.8463 110.769H34.3079C39.4059 110.769 43.5387 114.902 43.5387 120C43.5387 125.098 39.4059 129.231 34.3079 129.231H15.8463Z" fill="white"/>
<path d="M71.2313 64.6153C71.2313 69.7134 67.0985 73.8461 62.0005 73.8461C56.9025 73.8461 52.7697 69.7134 52.7697 64.6153V46.1538C52.7697 41.0557 56.9025 36.923 62.0005 36.923C67.0985 36.923 71.2313 41.0557 71.2313 46.1538V64.6153Z" fill="white"/>
<path d="M71.2313 193.846C71.2313 198.944 67.0985 203.077 62.0005 203.077C56.9025 203.077 52.7697 198.944 52.7697 193.846V175.385C52.7697 170.287 56.9025 166.154 62.0005 166.154C67.0985 166.154 71.2313 170.287 71.2313 175.385V193.846Z" fill="white"/>
</g>
<defs>
<clipPath id="clip0_33_1361">
<rect width="240" height="240" fill="white" transform="translate(-58)"/>
</clipPath>
</defs>
</svg>
